<?xml version="1.0" encoding="UTF-8" standalone="no"?>
<!-- Created with Inkscape (http://www.inkscape.org/) -->

<svg
   xmlns:dc="http://purl.org/dc/elements/1.1/"
   xmlns:cc="http://creativecommons.org/ns#"
   xmlns:rdf="http://www.w3.org/1999/02/22-rdf-syntax-ns#"
   xmlns:svg="http://www.w3.org/2000/svg"
   xmlns="http://www.w3.org/2000/svg"
   xmlns:sodipodi="http://sodipodi.sourceforge.net/DTD/sodipodi-0.dtd"
   xmlns:inkscape="http://www.inkscape.org/namespaces/inkscape"
   width="210mm"
   height="297mm"
   viewBox="0 0 744.09448819 1052.3622047"
   id="svg2"
   version="1.1"
   inkscape:version="0.91 r13725"
   sodipodi:docname="seal.svg">
  <defs
     id="defs4" />
  <sodipodi:namedview
     id="base"
     pagecolor="#ffffff"
     bordercolor="#666666"
     borderopacity="1.0"
     inkscape:pageopacity="0.0"
     inkscape:pageshadow="2"
     inkscape:zoom="0.35"
     inkscape:cx="142.14286"
     inkscape:cy="634.28571"
     inkscape:document-units="px"
     inkscape:current-layer="layer1"
     showgrid="false"
     inkscape:window-width="1280"
     inkscape:window-height="751"
     inkscape:window-x="0"
     inkscape:window-y="1"
     inkscape:window-maximized="1" />
  <metadata
     id="metadata7">
    <rdf:RDF>
      <cc:Work
         rdf:about="">
        <dc:format>image/svg+xml</dc:format>
        <dc:type
           rdf:resource="http://purl.org/dc/dcmitype/StillImage" />
        <dc:title></dc:title>
      </cc:Work>
    </rdf:RDF>
  </metadata>
  <g
     inkscape:label="Layer 1"
     inkscape:groupmode="layer"
     id="layer1">
    <path
       style="fill:#000000"
       d="m 226.75723,286.34795 c -0.10198,-0.165 -0.0425,-0.3 0.13229,-0.3 0.17474,0 0.31771,0.135 0.31771,0.3 0,0.165 -0.0595,0.3 -0.1323,0.3 -0.0728,0 -0.21573,-0.135 -0.3177,-0.3 z m -17.00625,-6.20493 c 0.21656,-0.0867 0.47531,-0.076 0.575,0.0237 0.0997,0.0997 -0.0775,0.17059 -0.39375,0.15756 -0.34948,-0.0144 -0.42057,-0.0855 -0.18125,-0.18125 z m 45.05625,-70.11008 c 0,-0.0633 0.27018,-0.18566 0.60041,-0.27202 0.33023,-0.0864 0.52476,-0.0346 0.4323,0.11501 -0.16148,0.26127 -1.03271,0.39373 -1.03271,0.15701 z m -11.15625,-15.68992 c 0.21656,-0.0867 0.47531,-0.076 0.575,0.0237 0.0997,0.0997 -0.0775,0.17059 -0.39375,0.15756 -0.34949,-0.0144 -0.42057,-0.0855 -0.18125,-0.18124 z m -3.69375,-0.69507 c -0.10198,-0.165 -0.0504,-0.3 0.11459,-0.3 0.165,0 0.38343,0.135 0.48541,0.3 0.10197,0.165 0.0504,0.3 -0.11459,0.3 -0.165,0 -0.38344,-0.135 -0.48541,-0.3 z m 1.95,-1.03229 c 0,-0.25724 0.135,-0.46771 0.3,-0.46771 0.165,0 0.3,0.12703 0.3,0.28229 0,0.15527 -0.135,0.36573 -0.3,0.46771 -0.165,0.10198 -0.3,-0.0251 -0.3,-0.28229 z m 13.08392,-8.9226 c 0.0866,-0.14019 0.28321,-0.17723 0.43681,-0.0823 0.39251,0.24259 0.34832,0.33719 -0.15754,0.33719 -0.24024,0 -0.36591,-0.1147 -0.27927,-0.25489 z m 509.87381,-149.795108 0.0395,-1.05 10.00137,0 10.0014,0 0,1.05 0,1.05 -10.04085,0 -10.04088,0 0.0395,-1.05 z"
       id="path3403"
       inkscape:connector-curvature="0" />
    <path
       style="fill:#000000"
       d="m 195.32859,272.06222 c -0.10198,-0.165 -0.0425,-0.3 0.13229,-0.3 0.17474,0 0.31771,0.135 0.31771,0.3 0,0.165 -0.0595,0.3 -0.1323,0.3 -0.0728,0 -0.21573,-0.135 -0.3177,-0.3 z m -17.00625,-6.20494 c 0.21656,-0.0867 0.47531,-0.076 0.575,0.0237 0.0997,0.0997 -0.0775,0.1706 -0.39375,0.15757 -0.34949,-0.0144 -0.42057,-0.0855 -0.18125,-0.18125 z m 45.05625,-70.11007 c 0,-0.0633 0.27018,-0.18567 0.60041,-0.27203 0.33023,-0.0863 0.52476,-0.0346 0.43229,0.11502 -0.16147,0.26127 -1.0327,0.39373 -1.0327,0.15701 z m -11.15625,-15.68993 c 0.21656,-0.0867 0.47531,-0.076 0.575,0.0237 0.0997,0.0997 -0.0775,0.1706 -0.39375,0.15757 -0.34949,-0.0144 -0.42057,-0.0855 -0.18125,-0.18125 z m -3.69375,-0.69506 c -0.10198,-0.165 -0.0504,-0.3 0.11459,-0.3 0.165,0 0.38343,0.135 0.48541,0.3 0.10197,0.165 0.0504,0.3 -0.11459,0.3 -0.165,0 -0.38344,-0.135 -0.48541,-0.3 z m 1.95,-1.0323 c 0,-0.25723 0.135,-0.4677 0.3,-0.4677 0.165,0 0.3,0.12703 0.3,0.28229 0,0.15526 -0.135,0.36573 -0.3,0.46771 -0.165,0.10197 -0.3,-0.0251 -0.3,-0.2823 z m 13.08392,-8.9226 c 0.0866,-0.14019 0.28321,-0.17722 0.43681,-0.0823 0.39251,0.24259 0.34831,0.33719 -0.15754,0.33719 -0.24024,0 -0.36591,-0.1147 -0.27927,-0.2549 z m 509.87381,-149.795101 0.0395,-1.05 10.00137,0 10.0014,0 0,1.05 0,1.05 -10.04085,0 -10.04088,0 0.0395,-1.05 z"
       id="path3401"
       inkscape:connector-curvature="0" />
    <path
       style="fill:#000000"
       d="m 356.58548,566.13391 c -1.08135,-0.7574 -2.23716,-0.88272 -5.12646,-0.55584 -2.78441,0.31502 -4.37726,0.1632 -6.28147,-0.59871 -1.40312,-0.56142 -3.18019,-0.86288 -3.94905,-0.66991 -0.81773,0.20524 -3.59544,-0.47473 -6.69269,-1.63835 -2.91212,-1.09406 -6.29195,-2.02297 -7.51071,-2.06424 -1.69448,-0.0574 -3.07726,-0.81042 -5.87603,-3.20003 -3.28481,-2.80457 -3.96839,-3.12579 -6.66674,-3.13267 -4.07602,-0.0104 -4.69504,-0.73764 -3.68836,-4.33313 0.43836,-1.56569 0.94486,-2.8467 1.12555,-2.8467 0.18069,0 1.19883,0.66203 2.26253,1.47118 1.06369,0.80915 2.77774,1.63875 3.80899,1.84356 7.124,1.41486 8.94153,1.64689 10.4333,1.33192 1.03548,-0.21863 3.39553,0.26223 6.13234,1.24945 3.96842,1.43149 5.15877,1.57734 11.01887,1.35013 3.6134,-0.1401 6.63283,-0.35126 6.70985,-0.46923 0.077,-0.11798 0.46318,-0.96812 0.85812,-1.88921 0.94181,-2.19647 5.61081,-4.31391 8.48416,-3.84762 1.50832,0.24476 2.98485,-0.11573 5.31937,-1.29871 1.77731,-0.90064 3.23149,-1.92033 3.23149,-2.26596 0,-0.34564 1.18591,-1.915 2.63537,-3.48747 2.18742,-2.37308 2.60402,-3.22284 2.45096,-4.9994 -0.14929,-1.73271 0.18204,-2.46193 1.73963,-3.82868 1.05822,-0.92857 1.92404,-2.02134 1.92404,-2.42838 0,-1.87489 3.80393,-8.9881 5.34739,-9.99941 2.30446,-1.50994 5.2738,-1.39004 7.66034,0.30932 2.4106,1.7165 3.01906,3.77787 2.05998,6.97897 -0.67087,2.23918 -0.92447,2.4377 -3.63283,2.84385 -4.44784,0.66699 -7.05504,2.45385 -7.08203,4.85368 -0.0122,1.08323 -0.42409,2.67264 -0.91535,3.53201 -0.49126,0.85938 -0.90317,2.52875 -0.91535,3.70972 -0.0134,1.29724 -0.54197,2.70054 -1.33532,3.54502 -1.08205,1.15179 -1.23732,1.84672 -0.88223,3.9485 0.52333,3.09757 2.32959,3.84367 5.57587,2.30321 1.16652,-0.55354 2.92992,-1.00645 3.91867,-1.00645 0.98875,0 2.35485,-0.39022 3.03579,-0.86717 0.68092,-0.47694 2.50131,-1.2311 4.04531,-1.67591 1.54399,-0.44481 3.51039,-1.28185 4.36976,-1.86009 0.85938,-0.57824 2.82813,-1.6662 4.375,-2.41769 3.79146,-1.84194 5.92943,-3.094 9.99166,-5.85143 1.88603,-1.28024 3.61572,-2.32771 3.84375,-2.32771 0.22802,0 1.45522,-0.95625 2.72709,-2.125 3.49863,-3.21496 4.63995,-4.125 5.17333,-4.125 0.63516,0 3.71004,-3.42789 5.80053,-6.46647 2.57368,-3.7409 8.15415,-9.15853 9.4338,-9.15853 0.79459,0 1.15484,-0.4569 1.15484,-1.46466 0,-1.76792 2.03386,-7.84193 3.30819,-9.87971 0.50495,-0.80747 1.10668,-2.27797 1.33717,-3.26779 0.23048,-0.9898 1.52957,-2.89911 2.88685,-4.2429 1.78112,-1.7634 2.46779,-2.96437 2.46779,-4.31608 0,-1.03006 0.41162,-2.50105 0.91471,-3.26887 0.5031,-0.76782 1.22769,-3.50011 1.61022,-6.07176 0.38252,-2.57165 0.95465,-5.5377 1.27138,-6.59123 0.31674,-1.05352 0.75575,-4.56915 0.97559,-7.8125 0.21983,-3.24335 0.67726,-6.43596 1.01651,-7.09467 0.93929,-1.82385 0.96278,-12.80349 0.03,-14.02916 -0.42827,-0.56274 -0.78762,-2.18413 -0.79855,-3.60309 -0.0109,-1.41896 -0.44175,-3.58961 -0.95738,-4.82368 -0.51562,-1.23406 -0.9375,-3.57932 -0.9375,-5.21168 0,-3.06923 -1.46397,-7.89567 -2.91842,-9.62143 -0.45735,-0.5427 -0.83156,-1.3231 -0.83156,-1.73422 0,-0.97236 -2.65839,-1.96657 -5.25832,-1.96657 -2.64586,0 -12.91113,-2.14532 -14.60629,-3.05254 -1.43048,-0.76557 -4.4558,-0.91902 -6.05095,-0.3069 -0.55978,0.21482 -1.81136,2.14075 -2.78128,4.27986 -1.61987,3.57256 -1.95337,3.92012 -4.09504,4.26766 -1.28235,0.2081 -4.12515,0.21087 -6.31733,0.006 -2.77653,-0.25927 -4.27477,-0.13236 -4.93829,0.41831 -1.47246,1.22204 -1.13019,3.01209 0.76625,4.00739 0.94531,0.49611 2.84375,2.0792 4.21875,3.51796 4.45414,4.66068 14.61422,11.8621 16.73558,11.8621 1.17048,0 6.07692,5.28722 6.07692,6.54854 0,1.06541 -0.48712,1.14206 -6.25,0.98337 -3.22453,-0.0888 -4.23938,-0.36145 -4.91998,-1.32189 -0.47162,-0.6656 -1.40968,-1.21011 -2.08459,-1.21011 -0.67491,0 -2.11594,-1.00397 -3.20231,-2.23104 -1.08636,-1.22707 -2.90068,-2.6702 -4.0318,-3.20695 -1.13113,-0.53676 -5.03999,-4.17137 -8.68637,-8.07692 -4.55211,-4.87564 -7.25302,-7.27307 -8.61853,-7.65011 -1.0938,-0.30201 -2.75889,-1.31927 -3.70018,-2.26056 -1.6205,-1.6205 -1.92187,-1.68892 -5.67065,-1.28746 -2.782,0.29793 -4.89403,0.14638 -7.10322,-0.50967 -1.72921,-0.51353 -5.40927,-1.13128 -8.1779,-1.37279 -3.02359,-0.26375 -5.31814,-0.78163 -5.7457,-1.29681 -0.39151,-0.47173 -1.19469,-0.85769 -1.78488,-0.85769 -0.59017,0 -1.95135,-0.91406 -3.02484,-2.03125 -1.07349,-1.11719 -2.82066,-2.83662 -3.88259,-3.82098 -2.26605,-2.1005 -2.25371,-3.88786 0.0257,-3.72456 2.78051,0.19921 6.94362,1.28757 7.65811,2.00206 0.38485,0.38486 1.83879,0.70146 3.23098,0.70358 1.39219,0.002 3.375,0.4625 4.40625,1.02308 2.2046,1.19838 7.78479,1.64828 8.90625,0.71805 2.1303,-1.76705 -0.40693,-7.57637 -3.58675,-8.21233 -1.02403,-0.20481 -2.91558,-1.33802 -4.20344,-2.51827 l -2.34158,-2.14589 1.08151,-2.26795 c 0.59484,-1.24737 1.08152,-2.78856 1.08152,-3.42486 0,-3.36646 8.15286,-4.20267 9.38474,-0.96257 0.3153,0.8293 1.28726,1.68173 2.17023,1.90335 0.87955,0.22075 2.01381,0.99333 2.52057,1.71683 0.87588,1.25049 0.79028,1.3665 -1.73333,2.34907 -4.03489,1.57099 -3.87996,3.15085 0.75857,7.73558 2.07582,2.05174 3.77422,4.08432 3.77422,4.51684 0,1.75793 4.7848,3.54418 11.71435,4.37315 2.05457,0.24578 2.73829,0.092 3.03562,-0.68285 0.24355,-0.63469 1.13059,-1.00008 2.42787,-1.00008 4.00697,0 4.71369,-3.89907 1.03927,-5.73376 -1.15247,-0.57545 -2.50435,-1.63013 -3.00419,-2.34375 -0.49985,-0.71362 -1.1815,-1.29749 -1.51479,-1.29749 -1.26931,0 -12.99024,-5.87848 -12.68989,-6.36445 0.17354,-0.2808 1.24134,-0.51055 2.37288,-0.51055 3.84333,0 5.91292,-1.14724 6.67835,-3.70202 0.6062,-2.02332 0.51516,-2.7038 -0.68199,-5.09775 -1.73654,-3.47255 -3.51196,-4.91859 -6.06079,-4.93633 -1.21393,-0.008 -2.31576,-0.46474 -2.8125,-1.16471 -1.20052,-1.69168 -3.40228,-2.67996 -5.04952,-2.26653 -1.02898,0.25827 -1.9544,-0.10827 -3.20896,-1.27095 -1.59499,-1.47818 -2.07655,-1.5947 -5.05357,-1.22275 -1.97483,0.24674 -3.79399,0.14172 -4.54957,-0.26265 -1.63321,-0.87408 -3.33071,0.42965 -6.70507,5.14973 -3.87773,5.42418 -5.69811,4.15704 -3.44326,-2.39681 0.69067,-2.00745 1.25576,-4.43133 1.25576,-5.38639 0,-0.95505 0.28615,-2.4891 0.63589,-3.40899 0.5651,-1.48631 0.86085,-1.6246 2.65625,-1.2421 1.1112,0.23673 3.48344,0.57443 5.27165,0.75044 1.7882,0.17602 3.58045,0.71665 3.98277,1.20142 0.40233,0.48477 1.31177,0.88139 2.021,0.88139 0.70922,0 2.58241,1.0902 4.16264,2.42267 2.25768,1.90371 3.60512,2.51982 6.29022,2.87621 2.34756,0.31157 3.93562,0.94063 5.07379,2.00981 1.32269,1.24252 2.39376,1.58439 5.3125,1.69565 4.58079,0.17462 6.28228,-0.41228 7.23085,-2.49416 0.67223,-1.47539 1.00057,-1.60594 3.27259,-1.3012 3.13189,0.42008 5.33985,2.75377 5.33985,5.64391 0,1.11826 0.41293,2.57914 0.91762,3.2464 0.50469,0.66727 0.92657,2.07825 0.9375,3.13552 0.0269,2.59848 1.95627,4.24625 6.89488,5.88842 2.23437,0.74296 4.78101,2.03168 5.6592,2.86381 0.87818,0.83213 2.19752,1.51296 2.93186,1.51296 0.73435,0 1.50899,0.28125 1.72144,0.625 0.21245,0.34375 1.36287,0.625 2.5565,0.625 2.45902,0 3.38894,-1.33787 2.22964,-3.20779 -0.398,-0.64197 -1.0486,-1.80002 -1.44578,-2.57346 -0.39718,-0.77344 -0.96533,-1.82812 -1.26257,-2.34375 -0.29723,-0.51562 -0.98694,-1.92187 -1.53269,-3.125 -1.26439,-2.78739 -6.65741,-8.57272 -9.98087,-10.70694 -1.40843,-0.90443 -3.1854,-2.52162 -3.94881,-3.59375 -0.76342,-1.07212 -1.78098,-1.94931 -2.26123,-1.94931 -0.48026,0 -1.79705,-0.78625 -2.92619,-1.74722 -2.22914,-1.89712 -5.94156,-3.59701 -8.95907,-4.10229 -2.18337,-0.3656 -10.5869,-5.37029 -11.87843,-7.07415 -0.47479,-0.62636 -0.87219,-1.77165 -0.88313,-2.54509 -0.0186,-1.31302 0.24367,-1.40625 3.95541,-1.40625 3.26789,0 4.40788,0.29396 6.40625,1.65195 1.33703,0.90858 3.55597,2.03639 4.93097,2.50626 1.81925,0.62168 2.84037,1.49081 3.75,3.1918 0.93286,1.74443 1.71009,2.38998 3.06341,2.54439 0.99738,0.11379 3.62769,1.30911 5.84513,2.65625 2.21744,1.34714 4.23461,2.44935 4.48258,2.44935 0.24799,0 2.2115,1.61719 4.36338,3.59375 8.20467,7.53623 9.08207,8.26887 10.98271,9.17079 3.61824,1.71697 5.91998,5.6759 5.94088,10.21817 0.007,1.49637 0.6596,2.7543 2.43226,4.6875 4.57369,4.98793 5.70177,7.16478 5.706,11.01076 0.002,1.92859 0.38319,4.23347 0.84683,5.12196 0.46364,0.88848 1.32903,3.27911 1.92308,5.3125 0.59406,2.03339 1.33798,4.18544 1.65317,4.78234 0.31519,0.5969 0.57307,1.67007 0.57307,2.38484 0,0.71476 0.29229,1.84572 0.64954,2.51325 0.35725,0.66751 0.76799,3.10997 0.91276,5.42765 0.14477,2.3177 0.64789,7.16711 1.11804,10.77649 0.57692,4.429 0.69603,8.28962 0.3664,11.875 -0.26863,2.92188 -0.66326,7.70313 -0.87696,10.625 -0.21689,2.96548 -0.75241,5.72668 -1.21217,6.25 -0.453,0.51563 -1.03007,2.76468 -1.28238,4.99791 -0.49636,4.39325 -3.56721,13.19816 -5.02504,14.40806 -0.4951,0.41089 -0.90019,1.28636 -0.90019,1.94546 0,1.37476 -2.17035,5.87106 -3.11607,6.45555 -0.34866,0.21548 -0.63393,0.80266 -0.63393,1.30483 0,0.50217 -0.65813,1.96213 -1.46251,3.24436 -0.80438,1.28223 -1.65345,3.10459 -1.88682,4.04969 -0.2541,1.02912 -1.35966,2.31241 -2.75623,3.19936 -1.49942,0.95226 -2.93573,2.68457 -4.02321,4.8523 -1.30374,2.59885 -3.12448,4.56817 -7.94621,8.59472 -3.44023,2.87286 -6.69108,5.889 -7.22413,6.70253 -0.53304,0.81354 -2.01975,2.01839 -3.30378,2.67746 -1.28404,0.65906 -3.22467,2.20956 -4.31253,3.44554 -1.08785,1.23597 -2.38511,2.24723 -2.88281,2.24723 -0.49769,0 -1.91412,0.80204 -3.14763,1.78231 -2.53582,2.01521 -7.44558,4.52347 -11.81013,6.03344 -1.61892,0.56009 -3.98649,1.72614 -5.26126,2.59123 -2.23641,1.51766 -8.74996,3.56643 -14.62801,4.60108 -1.55801,0.27424 -3.94863,1.15805 -5.3125,1.96403 -2.0798,1.22906 -3.63898,1.52146 -9.66724,1.81292 -3.95313,0.19113 -7.6115,0.54662 -8.12973,0.78998 -0.52326,0.24572 -1.56301,0.008 -2.33833,-0.53541 z m 72.13885,-154.03105 c 1.6606,-0.0193 4.57921,-3.24697 4.57921,-5.06409 0,-1.60675 -0.22017,-1.81944 -1.88348,-1.81944 -1.03591,0 -2.51248,-0.32496 -3.28125,-0.72214 -0.76878,-0.39718 -1.81965,-0.91634 -2.33527,-1.15369 -0.51563,-0.23735 -1.25379,-1.38894 -1.64036,-2.55911 -0.5515,-1.6694 -1.08985,-2.17312 -2.5,-2.33912 -0.98843,-0.11635 -2.11138,-0.47138 -2.49547,-0.78895 -0.44923,-0.37144 -0.99623,-0.21844 -1.5335,0.42893 -0.58323,0.70274 -1.45074,0.90644 -2.87563,0.67521 -1.71843,-0.27886 -2.29488,-0.0288 -3.65253,1.58472 -0.88664,1.05371 -1.52806,2.35202 -1.42539,2.88514 0.10267,0.53312 1.68742,1.71162 3.52167,2.6189 1.93589,0.95755 3.86345,2.4842 4.59462,3.63901 0.69278,1.09418 1.86361,2.12136 2.60185,2.28263 2.56143,0.55954 5.0988,0.78491 6.34224,0.56331 0.6875,-0.12253 1.57998,-0.22662 1.98329,-0.23131 z M 301.42854,548.65683 c -0.85938,-0.49126 -2.31699,-0.90317 -3.23913,-0.91535 -1.10072,-0.0146 -1.80943,-0.44054 -2.06322,-1.24018 -0.21263,-0.66991 -0.93819,-1.3931 -1.61238,-1.60708 -1.94017,-0.61578 -4.33527,-4.65121 -4.33527,-7.30435 0,-2.29942 0.0346,-2.3329 2.03125,-1.96447 1.11719,0.20616 2.73437,0.74944 3.59375,1.20731 0.85937,0.45788 2.75781,1.39718 4.21875,2.08734 1.77144,0.83686 2.65625,1.6559 2.65625,2.45882 0,0.66217 0.55632,2.42998 1.23627,3.92846 0.67996,1.49848 1.24246,3.07606 1.25,3.50575 0.0181,1.03218 -1.78958,0.95657 -3.73627,-0.15625 z m 38.00601,-13.28125 c -1.32735,-3.19948 -0.59984,-10.27889 1.56213,-15.20104 0.53927,-1.22775 2.06573,-2.98436 3.39215,-3.90357 1.39213,-0.96475 2.73709,-2.57123 3.18145,-3.80009 1.10343,-3.0515 2.12547,-3.69299 5.08664,-3.1927 2.38817,0.40348 2.52162,0.54265 2.52162,2.62974 0,1.21204 -0.54086,3.22638 -1.20192,4.47632 -1.76986,3.34645 -3.17308,8.10928 -3.17308,10.77008 0,3.1324 -2.79141,8.59412 -4.77844,9.34958 -0.85412,0.32474 -2.52596,0.59043 -3.71522,0.59043 -1.76932,0 -2.29187,-0.31235 -2.87533,-1.71875 z m -56.58601,-0.91293 c -0.76588,-0.36963 -1.55978,-1.19913 -1.76424,-1.84331 -0.20445,-0.64418 -1.26533,-1.59848 -2.3575,-2.12065 -4.8406,-2.3143 -5.42326,-2.81214 -5.42326,-4.63381 0,-1.8229 -4.77759,-8.24951 -7.49819,-10.08624 -0.87092,-0.58798 -1.45502,-1.92124 -1.79409,-4.09522 -0.27651,-1.77287 -0.97075,-3.6914 -1.54274,-4.26339 -0.57199,-0.57199 -1.03998,-1.42262 -1.03998,-1.89028 0,-0.46767 -0.8057,-1.42401 -1.79044,-2.12521 -0.98474,-0.7012 -2.39192,-2.67307 -3.12705,-4.38194 -0.73514,-1.70887 -1.61694,-3.28029 -1.95956,-3.49204 -0.34263,-0.21175 -0.62295,-1.65252 -0.62295,-3.2017 0,-1.54919 -0.32239,-3.4191 -0.71643,-4.15535 -0.39403,-0.73626 -0.69273,-2.17171 -0.66378,-3.18989 0.0289,-1.01818 -0.35179,-2.42863 -0.84608,-3.13433 -0.49429,-0.7057 -0.89871,-2.01416 -0.89871,-2.90769 0,-0.89353 -0.40143,-2.87001 -0.89208,-4.39218 -0.87737,-2.722 -2.42426,-20.38985 -1.86451,-21.29557 0.15758,-0.25495 0.41078,-1.67484 0.56268,-3.15529 0.15189,-1.48045 0.58437,-3.95736 0.96107,-5.50423 0.3767,-1.54687 0.75993,-3.375 0.85163,-4.0625 0.0917,-0.6875 0.38701,-1.74564 0.65627,-2.35142 0.26926,-0.60578 0.35705,-2.00426 0.1951,-3.10772 -0.31707,-2.16032 0.83698,-7.93647 2.42666,-12.14574 0.68887,-1.82403 1.4451,-2.72068 2.52277,-2.99115 1.1271,-0.28288 1.49821,-0.75664 1.3866,-1.77012 -0.39579,-3.59396 0.84251,-6.84731 3.88497,-10.20691 1.84891,-2.04163 3.05884,-3.96283 3.05884,-4.85703 0,-0.81364 0.42187,-1.82948 0.9375,-2.25741 0.51562,-0.42793 0.9375,-1.2554 0.9375,-1.83882 0,-0.58342 0.70312,-1.67212 1.5625,-2.41934 0.85937,-0.74722 1.5625,-1.6714 1.5625,-2.05373 0,-0.65795 2.01945,-3.44715 4.06579,-5.61554 0.51382,-0.54446 0.93421,-1.26273 0.93421,-1.59615 0,-0.33341 1.0036,-1.57545 2.23022,-2.76006 1.22662,-1.18462 2.83029,-3.21744 3.5637,-4.51738 1.2948,-2.29495 3.45028,-3.48986 4.79555,-2.65844 1.04412,0.6453 0.81862,5.31302 -0.27697,5.73344 -0.51563,0.19787 -0.9375,1.01238 -0.9375,1.81003 0,0.84529 -0.71697,2.00115 -1.71875,2.77087 -2.00944,1.54396 -5.95035,4.83794 -7.75762,6.48415 -0.81651,0.74374 -1.14289,1.61543 -0.92164,2.46148 0.36925,1.41203 -1.37912,4.59883 -5.43762,9.91125 -2.63961,3.45515 -5.51076,10.97216 -4.97434,13.02342 0.18783,0.71826 -0.0672,1.78886 -0.56666,2.37912 -1.53807,1.81758 -3.62337,7.67536 -3.62337,10.17836 0,1.30678 -0.31992,3.16772 -0.71094,4.1354 -0.39101,0.9677 -0.82667,3.30632 -0.96812,5.19694 -0.55142,7.36975 -0.5986,28.615 -0.0708,31.875 0.64127,3.96089 2.93979,11.75476 5.6919,19.30022 1.77022,4.85339 2.09696,5.32246 4.45293,6.39252 1.39839,0.63515 3.43999,1.16099 4.53689,1.16854 1.0969,0.008 2.14535,0.25801 2.32988,0.5566 0.18454,0.29858 2.36845,0.7432 4.85315,0.98803 2.48469,0.24483 5.23312,0.80684 6.10762,1.2489 0.87449,0.44207 4.03253,0.94956 7.01786,1.12776 4.76347,0.28434 5.58589,0.17679 6.71875,-0.87863 1.73249,-1.61406 1.62783,-3.7445 -0.27162,-5.52894 -0.85938,-0.80734 -1.5625,-1.79715 -1.5625,-2.19958 0,-1.21989 -2.05453,-2.61829 -4.48648,-3.05368 -1.26444,-0.22637 -3.16288,-1.21858 -4.21875,-2.20491 -4.10252,-3.83234 -1.11163,-9.49201 3.99092,-7.55202 2.07242,0.78793 2.23672,0.92995 10.20931,8.82556 3.68087,3.64533 7.59259,7.09064 8.69271,7.65625 1.19608,0.61494 3.49427,1.02838 5.71651,1.02838 3.47166,0 3.84398,-0.14543 5.65604,-2.20925 1.06685,-1.21508 1.93974,-2.3303 1.93974,-2.47825 0,-0.14795 -0.79705,-1.19286 -1.77123,-2.322 -0.97418,-1.12915 -2.29371,-2.95566 -2.93229,-4.05892 -1.13576,-1.96219 -1.13469,-2.03507 0.049,-3.34305 2.62572,-2.90139 8.53923,-0.11192 13.35782,6.30103 2.90261,3.86301 3.00518,4.40851 1.33657,7.10838 -1.47104,2.3802 -3.75658,4.11892 -8.74933,6.65605 -2.08402,1.05903 -4.0707,2.45163 -4.41485,3.09467 -0.98625,1.84283 -0.73533,5.73703 0.62429,9.68884 1.3413,3.89857 1.6504,8.19986 0.61409,8.5453 -0.34975,0.11659 -1.89816,0.11158 -3.44091,-0.0111 -2.67915,-0.21309 -2.98655,-0.45217 -6.85103,-5.3286 -2.22531,-2.80803 -5.21309,-6.00247 -6.63949,-7.09877 -2.46936,-1.89788 -2.67895,-1.94905 -4.37987,-1.06948 -1.58227,0.81823 -2.0483,0.81436 -4.07827,-0.0338 -1.49979,-0.62665 -3.93263,-0.91459 -7.03944,-0.83317 -2.61117,0.0684 -6.57571,-0.20502 -8.81008,-0.60768 -3.83154,-0.6905 -4.12469,-0.65763 -5.15625,0.57809 -1.72017,2.06062 -1.86432,1.80657 5.13484,9.05002 0.69927,0.72367 1.27141,1.72933 1.27141,2.2348 0,0.50546 0.68853,1.56588 1.53008,2.35646 0.84154,0.79059 1.71659,2.31618 1.94455,3.3902 0.22796,1.07402 0.86418,2.46212 1.41382,3.08467 0.86797,0.9831 0.87936,1.20779 0.0867,1.70918 -1.1811,0.74707 -3.05466,0.68459 -4.80515,-0.16027 z m 98.90476,-24.84461 c -0.49837,-0.96374 -1.59739,-1.92575 -2.44227,-2.1378 -1.95487,-0.49063 -5.38249,-3.35123 -5.38249,-4.49206 0,-0.47852 0.77344,-1.03548 1.71875,-1.2377 0.94531,-0.20221 2.36479,-0.62944 3.15441,-0.94941 0.78961,-0.31995 2.81913,-0.58174 4.51005,-0.58174 1.69091,0 3.99798,-0.38189 5.12683,-0.84866 1.12885,-0.46676 3.71725,-1.39342 5.752,-2.05923 4.88045,-1.59702 5.29011,-2.34925 3.37713,-6.20131 -1.18201,-2.38016 -2.5122,-3.74653 -5.86519,-6.02474 -2.38507,-1.62055 -4.61773,-2.95769 -4.96148,-2.97143 -0.34375,-0.0137 -1.89063,-0.86632 -3.4375,-1.89463 -1.54688,-1.02831 -3.43283,-1.87085 -4.19099,-1.87232 -0.75818,-0.001 -2.41461,-0.7058 -3.68097,-1.56518 -1.26636,-0.85937 -2.70716,-1.5625 -3.20177,-1.5625 -0.49461,0 -2.0077,-1.05469 -3.36242,-2.34375 -4.15226,-3.95102 -4.90474,-4.53125 -5.87635,-4.53125 -0.51562,0 -0.9375,-0.42187 -0.9375,-0.9375 0,-1.1674 1.62511,-1.24018 2.06552,-0.0925 0.17834,0.46475 1.62602,1.02342 3.21707,1.2415 3.67013,0.50305 5.34241,1.39797 5.34241,2.85897 0,1.64818 1.14634,2.3756 4.53986,2.8808 4.15185,0.6181 6.71014,-0.4913 6.71014,-2.90985 0,-1.50073 -0.55605,-2.15712 -3.28125,-3.87336 -4.21122,-2.65208 -13.80363,-7.29305 -15.074,-7.29305 -1.1352,0 -4.4467,-1.35217 -8.70543,-3.55464 -2.82055,-1.45868 -3.08901,-1.49104 -4.53125,-0.54605 -0.97272,0.63735 -1.53307,1.59478 -1.53307,2.61946 0,1.03053 -0.28273,1.50964 -0.78125,1.32392 -7.52138,-2.80194 -17.15233,-4.89487 -23.59375,-5.12722 -3.60938,-0.1302 -8.39063,-0.53401 -10.625,-0.89736 -2.23438,-0.36336 -6.35777,-0.79056 -9.16311,-0.94934 -2.80533,-0.15877 -5.61783,-0.56301 -6.25,-0.89831 -0.63216,-0.3353 -2.46053,-1.07024 -4.06303,-1.6332 -1.6025,-0.56295 -3.07024,-1.43164 -3.26163,-1.9304 -0.19141,-0.49878 -0.95644,-0.90686 -1.70009,-0.90686 -1.69076,0 -5.56214,-2.34106 -5.56214,-3.36347 0,-1.45209 1.5135,-2.26153 4.22859,-2.26153 1.50072,0 3.2913,0.30116 3.97906,0.66923 1.67731,0.89767 6.64522,1.82843 12.72985,2.38499 2.75,0.25154 5.65479,0.81391 6.45509,1.24969 0.8003,0.43579 1.81346,0.65482 2.25147,0.48675 0.71065,-0.27271 3.60354,0.21722 12.85594,2.17723 4.87964,1.0337 18.27733,1.69797 19.99646,0.99144 0.86132,-0.35398 2.69104,-0.81308 4.06604,-1.02022 1.92866,-0.29054 2.54348,-0.68151 2.69027,-1.71074 0.24249,-1.70028 -2.347,-3.79871 -5.39276,-4.37009 -1.24474,-0.23352 -3.58113,-1.08655 -5.19197,-1.89563 -1.61084,-0.80908 -3.80411,-1.64611 -4.87393,-1.86008 -1.06982,-0.21396 -2.09649,-0.63395 -2.2815,-0.9333 -0.18501,-0.29934 -1.2932,-0.54427 -2.46265,-0.54427 -1.36064,0 -2.57017,-0.47647 -3.35904,-1.32323 -0.96254,-1.03316 -1.75568,-1.26036 -3.6181,-1.03643 -1.53396,0.18445 -3.38914,-0.14546 -5.19782,-0.92433 -1.54687,-0.66614 -3.45663,-1.46272 -4.2439,-1.77018 -1.21486,-0.47445 -1.3273,-0.75354 -0.74325,-1.84484 1.06074,-1.98202 3.49894,-2.6407 6.81725,-1.8417 1.57157,0.3784 3.70115,0.75596 4.7324,0.839 1.03125,0.0831 3.06473,0.91053 4.51883,1.83885 2.78923,1.78068 7.80537,2.35859 8.64734,0.99625 0.23509,-0.38039 0.0623,-1.7981 -0.38406,-3.15048 -0.71185,-2.15693 -0.68348,-2.5869 0.23105,-3.50143 0.91271,-0.91271 1.41273,-0.94665 4.0147,-0.27257 1.63468,0.4235 3.39401,1.34991 3.90964,2.05871 0.51562,0.7088 1.99219,2.42371 3.28125,3.81092 2.58108,2.77758 2.73799,3.36017 1.38637,5.14717 -0.50469,0.66726 -0.91762,1.83757 -0.91762,2.60069 0,1.73052 3.33106,4.6236 5.32357,4.6236 0.81271,0 1.65148,0.28125 1.86393,0.625 0.21245,0.34375 1.36287,0.625 2.5565,0.625 1.35254,0 2.30577,0.35323 2.52998,0.9375 0.19787,0.51563 0.99844,0.9375 1.77906,0.9375 0.78062,0 2.42722,0.42113 3.65911,0.93585 1.95032,0.81489 2.72134,0.82351 5.96563,0.0667 4.89144,-1.1411 5.07222,-1.28802 5.07222,-4.1223 0,-1.96702 -0.26369,-2.50135 -1.40625,-2.84954 -1.82689,-0.55673 -3.59375,-2.12511 -3.59375,-3.19006 0,-1.29621 3.63277,-1.02356 5.45446,0.40937 0.87401,0.6875 2.06616,1.25 2.64921,1.25 0.58306,0 1.45322,0.73455 1.9337,1.63233 0.48048,0.89778 1.51238,1.8752 2.29312,2.17203 1.08841,0.41382 1.41951,1.03095 1.41951,2.6458 0,2.56567 -1.59903,4.17484 -4.14851,4.17484 -2.55896,0 -4.23678,1.3203 -3.72538,2.93156 0.35101,1.10597 7.25238,5.81844 8.52105,5.81844 0.25298,0 1.26554,0.42014 2.25015,0.93365 0.9846,0.51351 2.22976,0.93538 2.76701,0.9375 0.53725,0.002 1.76129,0.82267 2.72009,1.82344 l 1.74328,1.81959 -2.55335,1.46166 c -2.77765,1.59005 -4.3254,4.43537 -3.01208,5.53729 1.21866,1.0225 5.3278,3.64791 7.32999,4.68329 1.02176,0.52837 1.85775,1.19646 1.85775,1.48463 0,0.28817 -1.10855,1.29218 -2.46344,2.23112 -2.9408,2.03797 -3.98877,5.06222 -2.20593,6.36587 0.60694,0.44381 1.33096,0.66635 1.60893,0.49455 1.12226,-0.69359 4.9732,1.66535 6.77169,4.1481 1.05256,1.45302 1.91375,2.92281 1.91375,3.2662 0,1.00808 -3.8391,4.44636 -7.09569,6.35485 -1.65755,0.97139 -3.10622,2.07657 -3.21925,2.45596 -1.3654,4.58257 -2.48052,6.59209 -3.97028,7.15465 -0.90875,0.34316 -4.39877,0.76449 -7.75559,0.93627 l -6.10331,0.31234 -0.90612,-1.75225 z m 5.1778,-47.4473 c -0.1292,-1.11408 -0.61281,-1.69925 -1.51022,-1.82735 -0.72608,-0.10364 -2.11464,-1.0177 -3.08568,-2.03125 -0.97104,-1.01354 -2.20509,-1.8462 -2.74234,-1.85034 -0.53725,-0.004 -2.12436,-0.66383 -3.52692,-1.46597 -3.09885,-1.77228 -7.29484,-2.44369 -8.72704,-1.39644 -1.43594,1.04998 -0.91379,3.4227 0.96464,4.38356 0.85937,0.43959 3.33215,1.71065 5.49506,2.82459 2.19354,1.12971 4.37444,1.85576 4.93181,1.64188 0.5496,-0.2109 1.61307,0.0188 2.36328,0.51029 3.09442,2.02755 6.11666,1.61906 5.83741,-0.78897 z m -11.56551,30.39234 c -2.03506,-2.2343 -2.59338,-3.7514 -2.48025,-6.73945 0.10354,-2.73486 0.15191,-2.79566 2.37107,-2.98111 2.03246,-0.16984 2.4662,0.0838 4.21875,2.46688 2.28711,3.10998 2.37208,3.90305 0.71023,6.62868 -1.45099,2.37979 -3.03447,2.58513 -4.8198,0.625 z m -18.38271,-10.02247 c -4.19594,-3.55523 -4.82891,-7.94628 -1.14544,-7.94628 2.57046,0 4.63879,1.48919 6.18293,4.45168 0.99381,1.90668 1.143,2.7674 0.64194,3.70363 -0.87791,1.64042 -3.61559,1.53965 -5.67943,-0.20903 z m -21.18361,-6.07527 c -1.88271,-1.75872 -1.98468,-2.06875 -1.593,-4.84375 0.82288,-5.82993 1.8038,-6.8659 5.16346,-5.45327 1.52559,0.64147 2.14345,1.41927 2.66447,3.35417 0.37307,1.38549 0.9747,2.70225 1.33697,2.92613 0.83455,0.51578 0.15451,3.35365 -1.15069,4.80196 -1.50767,1.67299 -4.13341,1.35189 -6.42121,-0.78524 z M 311.2314,464.18886 c -0.22302,-0.22302 -3.06519,-0.45555 -6.31594,-0.51674 -6.12745,-0.11535 -7.86192,-0.74134 -7.86192,-2.83745 0,-1.66924 1.17909,-1.86534 11.21581,-1.86534 8.26588,0 15.30485,0.68732 16.19932,1.58179 0.84783,0.84783 -2.12627,2.42966 -5.96458,3.17237 -4.82367,0.93338 -6.68554,1.05251 -7.27269,0.46537 z m 29.25964,-57.71953 c -0.21245,-0.34375 -1.07839,-0.625 -1.92431,-0.625 -1.34491,0 -6.51319,-2.69849 -6.51319,-3.4007 0,-0.84849 2.20484,-2.2243 3.56462,-2.2243 0.88019,0 2.53629,-0.57845 3.68022,-1.28544 1.55027,-0.95812 2.37338,-1.12837 3.23245,-0.66861 0.70723,0.3785 1.50178,0.39589 2.05638,0.045 0.49711,-0.3145 1.74758,-0.58531 2.77883,-0.60179 2.52258,-0.0403 8.12726,-2.02473 10.34082,-3.66128 3.4928,-2.58234 4.9357,-0.98594 2.47168,2.73461 -0.68297,1.03125 -1.24362,2.3236 -1.24588,2.87188 -0.006,1.34939 -2.00014,3.06562 -3.5628,3.06562 -0.70001,0 -2.00389,0.57511 -2.8975,1.27803 -0.89362,0.70292 -3.53311,1.68241 -5.86554,2.17665 -5.08462,1.07742 -5.61654,1.10311 -6.11578,0.29532 z m -18.14065,-11.90032 c -0.22106,-0.35769 -1.49119,-1.33795 -2.82251,-2.17838 -3.387,-2.13812 -4.00968,-3.51498 -2.4731,-5.46842 1.49908,-1.90577 7.16072,-2.88726 9.48365,-1.64407 0.78624,0.42078 3.03075,0.74998 4.9878,0.73155 2.96659,-0.0279 3.7911,0.21431 4.95843,1.45688 1.20122,1.27863 1.29779,1.71507 0.6797,3.07163 -0.80196,1.76012 -3.49054,3.04875 -5.34763,2.56311 -0.67516,-0.17656 -1.8965,0.22211 -2.75908,0.90061 -1.66322,1.30828 -6.02144,1.67677 -6.70726,0.56709 z m 18.77189,-21.84316 c -0.98456,-1.02766 -1.61293,-2.04566 -1.39637,-2.26223 0.62217,-0.62217 4.48894,1.8961 4.71517,3.0708 0.31865,1.65467 -1.34784,1.24866 -3.3188,-0.80857 z m 49.38667,-12.72864 c -1.64068,-1.19969 -0.82945,-3.138 1.07276,-2.56323 1.96404,0.59345 2.57522,1.28869 2.13694,2.43084 -0.462,1.20394 -1.6758,1.25401 -3.2097,0.13239 z"
       id="path3515"
       inkscape:connector-curvature="0"
       inkscape:export-xdpi="20.64423"
       inkscape:export-ydpi="20.64423" />
    <path
       style="fill:#000000"
       d="m 493.86159,764.80541 c 0.42969,-0.17339 1.13281,-0.17339 1.5625,0 0.42969,0.17338 0.0781,0.31524 -0.78125,0.31524 -0.85938,0 -1.21094,-0.14186 -0.78125,-0.31524 z m -10.98909,-9.27407 c 0.45668,-0.45669 9.2717,-0.51898 9.72198,-0.0687 0.20993,0.20993 -1.96206,0.38169 -4.82664,0.38169 -2.86458,0 -5.06749,-0.14084 -4.89534,-0.31299 z m -25.84685,-2.61395 c 0.45117,-0.18055 0.99023,-0.15835 1.19792,0.0493 0.20768,0.20768 -0.16146,0.3554 -0.82031,0.32826 -0.7281,-0.03 -0.87619,-0.17809 -0.37761,-0.3776 z m 17.93599,-0.83325 c 0.21591,-0.34936 0.65439,-0.47339 0.97439,-0.27562 0.8669,0.53577 0.70525,0.91081 -0.39258,0.91081 -0.53591,0 -0.79772,-0.28584 -0.58181,-0.63519 z m 52.1812,-15.57792 c 0,-0.32346 0.28125,-0.76194 0.625,-0.97439 0.34375,-0.21245 0.625,0.0522 0.625,0.58811 0,0.53591 -0.28125,0.97439 -0.625,0.97439 -0.34375,0 -0.625,-0.26465 -0.625,-0.58811 z m -41.25,-0.66189 c 0,-0.34375 0.5459,-0.625 1.21311,-0.625 0.66722,0 1.38694,0.28125 1.59939,0.625 0.21908,0.35447 -0.30601,0.625 -1.21311,0.625 -0.87967,0 -1.59939,-0.28125 -1.59939,-0.625 z m 35.625,-0.66189 c 0,-0.70779 0.28125,-1.11306 0.625,-0.90061 0.34375,0.21245 0.625,0.79155 0.625,1.28689 0,0.49534 -0.28125,0.90061 -0.625,0.90061 -0.34375,0 -0.625,-0.5791 -0.625,-1.28689 z m -26.20066,-6.57769 c 0.03,-0.72809 0.17809,-0.87619 0.3776,-0.37761 0.18055,0.45117 0.15835,0.99024 -0.0493,1.19792 -0.20768,0.20768 -0.3554,-0.16146 -0.32826,-0.82031 z m -75.04934,-1.54731 c 0,-0.36404 0.28125,-0.48806 0.625,-0.27561 0.34375,0.21245 0.625,0.5103 0.625,0.66189 0,0.15159 -0.28125,0.27561 -0.625,0.27561 -0.34375,0 -0.625,-0.29785 -0.625,-0.66189 z m 75.04934,-2.82769 c 0.03,-0.72809 0.17809,-0.87619 0.3776,-0.37761 0.18055,0.45117 0.15835,0.99024 -0.0493,1.19792 -0.20768,0.20768 -0.3554,-0.16146 -0.32826,-0.82031 z m 87.76316,-6.51042 c 0.21245,-0.34375 0.5103,-0.625 0.66189,-0.625 0.15158,0 0.27561,0.28125 0.27561,0.625 0,0.34375 -0.29785,0.625 -0.66189,0.625 -0.36404,0 -0.48806,-0.28125 -0.27561,-0.625 z m -150.3125,-5.625 c 0,-0.34375 0.43847,-0.625 0.97439,-0.625 0.53591,0 0.80056,0.28125 0.58811,0.625 -0.21245,0.34375 -0.65092,0.625 -0.97439,0.625 -0.32346,0 -0.58811,-0.28125 -0.58811,-0.625 z m 41.17347,-9.43784 c 0.77505,-0.72207 1.58099,-1.14103 1.79097,-0.93105 0.21,0.21 -0.16016,0.79183 -0.82256,1.29297 -1.84007,1.3921 -2.56166,1.12242 -0.96841,-0.36192 z m -50.23597,0.0628 c 0.21245,-0.34375 0.94877,-0.625 1.63627,-0.625 0.6875,0 1.07618,0.28125 0.86373,0.625 -0.21245,0.34375 -0.94877,0.625 -1.63627,0.625 -0.6875,0 -1.07618,-0.28125 -0.86373,-0.625 z m 22.8125,-0.90061 c 0,-0.87966 0.28125,-1.59939 0.625,-1.59939 0.34375,0 0.625,0.5459 0.625,1.21311 0,0.66722 -0.28125,1.38694 -0.625,1.59939 -0.35448,0.21907 -0.625,-0.30601 -0.625,-1.21311 z m 146.99684,-0.66189 c 0.0127,-1.03125 0.15282,-1.37746 0.31128,-0.76936 0.15846,0.60811 0.14804,1.45186 -0.0232,1.875 -0.17121,0.42315 -0.30086,-0.0744 -0.28812,-1.10564 z m 1.407,-2.86696 c -0.23096,-0.3737 -0.10693,-0.99245 0.27562,-1.375 0.51072,-0.51072 0.69554,-0.33018 0.69554,0.67946 0,1.50907 -0.32466,1.74159 -0.97116,0.69554 z m -40.65384,-3.32054 c -0.22879,-0.59621 -0.10661,-1.39339 0.27152,-1.77152 0.5,-0.5 0.80095,-0.39186 1.10348,0.39652 0.22879,0.59621 0.10661,1.39339 -0.27152,1.77152 -0.5,0.5 -0.80095,0.39186 -1.10348,-0.39652 z m -76.8125,-1 c -0.21245,-0.34375 -0.10502,-0.625 0.23873,-0.625 0.34375,0 0.79882,0.28125 1.01127,0.625 0.21245,0.34375 0.10502,0.625 -0.23873,0.625 -0.34375,0 -0.79882,-0.28125 -1.01127,-0.625 z m -39.6875,-2.5 c 0,-0.34375 0.26465,-0.625 0.58811,-0.625 0.32347,0 0.76194,0.28125 0.97439,0.625 0.21245,0.34375 -0.0522,0.625 -0.58811,0.625 -0.53592,0 -0.97439,-0.28125 -0.97439,-0.625 z m 37.22768,-1.69179 c -0.33917,-0.89075 -0.26739,-0.96254 0.34988,-0.34988 0.42713,0.42396 0.61916,0.92828 0.42673,1.12071 -0.19243,0.19243 -0.5419,-0.15445 -0.77661,-0.77083 z m 44.95982,0.44179 c -0.21245,-0.34375 -0.0884,-0.625 0.27561,-0.625 0.36404,0 0.66189,0.28125 0.66189,0.625 0,0.34375 -0.12403,0.625 -0.27561,0.625 -0.15159,0 -0.44944,-0.28125 -0.66189,-0.625 z m -84.0625,-5.52083 c 0,-0.83246 0.39067,-1.35417 1.01402,-1.35417 0.868,0 0.89347,0.15751 0.17686,1.09375 -0.46044,0.60156 -0.91676,1.21094 -1.01402,1.35417 -0.0973,0.14322 -0.17686,-0.34896 -0.17686,-1.09375 z m 86.25,-0.72917 c 0,-0.34375 0.28125,-0.625 0.625,-0.625 0.34375,0 0.625,0.28125 0.625,0.625 0,0.34375 -0.28125,0.625 -0.625,0.625 -0.34375,0 -0.625,-0.28125 -0.625,-0.625 z m -16.43626,-1.37442 c 0.75693,-0.36565 1.49774,-1.12005 1.64625,-1.67645 0.1485,-0.55639 0.30263,-0.23819 0.34251,0.70712 0.0627,1.48532 -0.16092,1.71301 -1.64625,1.67645 -1.66571,-0.041 -1.67628,-0.0628 -0.34251,-0.70712 z m 42.06126,-5.53747 c 0,-0.36404 0.28125,-0.48806 0.625,-0.27561 0.34375,0.21245 0.625,0.5103 0.625,0.66189 0,0.15158 -0.28125,0.27561 -0.625,0.27561 -0.34375,0 -0.625,-0.29785 -0.625,-0.66189 z m -67.5,-2.46311 c 0,-0.34375 0.28125,-0.625 0.625,-0.625 0.34375,0 0.625,0.28125 0.625,0.625 0,0.34375 -0.28125,0.625 -0.625,0.625 -0.34375,0 -0.625,-0.28125 -0.625,-0.625 z m 0.31556,-2.49505 c -0.21077,-0.34102 -0.0953,-1.11446 0.25661,-1.71875 0.54884,-0.94247 0.64252,-0.8543 0.65882,0.62005 0.0199,1.79734 -0.26922,2.1443 -0.91543,1.0987 z m 2.45131,-4.67903 c -1.05741,-0.79998 -1.07541,-0.91359 -0.14751,-0.93104 0.58128,-0.0109 1.24225,0.28008 1.46884,0.6467 0.68083,1.10161 -0.0369,1.25606 -1.32133,0.28434 z m 45.67063,-2.20092 c -0.48886,-0.791 0.33852,-0.791 1.5625,0 0.80793,0.52212 0.79143,0.60718 -0.11936,0.61543 -0.58128,0.005 -1.23069,-0.27168 -1.44314,-0.61543 z m -84.5625,-3.25 c -1.17047,-1.17047 -0.88297,-2.375 0.56687,-2.375 0.90327,0 1.20587,0.28926 0.96345,0.92097 -0.19493,0.50798 0.12542,1.20013 0.71439,1.54349 0.95863,0.55889 0.93681,0.62447 -0.21346,0.64153 -0.70469,0.0104 -1.61875,-0.31849 -2.03125,-0.73099 z m 98.50781,-0.30194 c 0.45117,-0.18055 0.99024,-0.15835 1.19792,0.0493 0.20768,0.20768 -0.16146,0.3554 -0.82031,0.32826 -0.7281,-0.03 -0.87619,-0.17809 -0.37761,-0.3776 z m -27.38281,-0.82306 c 0,-0.34375 0.42187,-0.625 0.9375,-0.625 0.51562,0 0.9375,0.28125 0.9375,0.625 0,0.34375 -0.42188,0.625 -0.9375,0.625 -0.51563,0 -0.9375,-0.28125 -0.9375,-0.625 z m -62.19097,-0.63061 c -0.2415,-0.39076 1.59179,-0.61939 4.96658,-0.61939 2.94216,0 5.34939,0.2548 5.34939,0.56623 0,0.77551 -9.83819,0.82621 -10.31597,0.0532 z m 83.28472,-0.40832 c 0.42969,-0.17338 1.13281,-0.17338 1.5625,0 0.42969,0.17339 0.0781,0.31525 -0.78125,0.31525 -0.85938,0 -1.21094,-0.14186 -0.78125,-0.31525 z m -27.04812,-0.80878 c 0.20317,-0.32873 0.78227,-0.43926 1.28689,-0.24563 1.29194,0.49577 1.1397,0.84334 -0.36941,0.84334 -0.70778,0 -1.12065,-0.26897 -0.91748,-0.59771 z m -4.16282,-1.70423 c 0.45117,-0.18055 0.99024,-0.15835 1.19792,0.0493 0.20768,0.20768 -0.16146,0.3554 -0.82031,0.32826 -0.7281,-0.03 -0.87619,-0.17809 -0.37761,-0.3776 z m -49.72656,-5.00389 c 0.60156,-0.1572 1.58594,-0.1572 2.1875,0 0.60156,0.1572 0.10937,0.28583 -1.09375,0.28583 -1.20313,0 -1.69531,-0.12863 -1.09375,-0.28583 z m 23.4375,-0.002 c -2.01614,-0.52348 -1.12035,-1.44229 1.40625,-1.44229 1.375,0 2.5,0.28125 2.5,0.625 0,0.34375 -0.25825,0.625 -0.57388,0.625 -0.31564,0 -0.94845,0.10719 -1.40625,0.23821 -0.45781,0.13102 -1.32456,0.1104 -1.92612,-0.0458 z m -77.60441,-1.9835 c -0.26923,-0.43562 -0.32072,-0.96083 -0.11443,-1.16713 0.55936,-0.55935 1.16923,0.26332 0.86712,1.16966 -0.2117,0.63511 -0.35892,0.63461 -0.75269,-0.002 z m 67.76066,-0.70879 c 0,-0.34375 0.26465,-0.625 0.58811,-0.625 0.32347,0 0.76194,0.28125 0.97439,0.625 0.21245,0.34375 -0.0522,0.625 -0.58811,0.625 -0.53592,0 -0.97439,-0.28125 -0.97439,-0.625 z m 64.6875,-0.625 c -0.21245,-0.34375 -0.10502,-0.625 0.23873,-0.625 0.34375,0 0.79882,0.28125 1.01127,0.625 0.21245,0.34375 0.10502,0.625 -0.23873,0.625 -0.34375,0 -0.79882,-0.28125 -1.01127,-0.625 z m -70.625,-0.625 c -1.04751,-0.45013 -0.92096,-0.54426 0.78125,-0.58107 1.11719,-0.0242 2.03125,0.23732 2.03125,0.58107 0,0.74198 -1.08581,0.74198 -2.8125,0 z m 51.25,0 c -0.21245,-0.34375 0.0688,-0.625 0.625,-0.625 0.5562,0 0.83745,0.28125 0.625,0.625 -0.21245,0.34375 -0.4937,0.625 -0.625,0.625 -0.1313,0 -0.41255,-0.28125 -0.625,-0.625 z m 51.5625,-1.25 c 0,-0.34375 0.28125,-0.625 0.625,-0.625 0.34375,0 0.625,0.28125 0.625,0.625 0,0.34375 -0.28125,0.625 -0.625,0.625 -0.34375,0 -0.625,-0.28125 -0.625,-0.625 z m -112.8125,-0.625 c -1.00741,-0.4329 -0.80231,-0.54567 1.05686,-0.58107 1.26878,-0.0242 2.48069,0.23732 2.69314,0.58107 0.4661,0.75417 -1.99495,0.75417 -3.75,0 z m 55.3125,0 c 0,-0.34375 0.5625,-0.625 1.25,-0.625 0.6875,0 1.25,0.28125 1.25,0.625 0,0.34375 -0.5625,0.625 -1.25,0.625 -0.6875,0 -1.25,-0.28125 -1.25,-0.625 z m -73.90625,-3.56608 c 0.77344,-0.14898 2.03906,-0.14898 2.8125,0 0.77344,0.14897 0.14062,0.27086 -1.40625,0.27086 -1.54688,0 -2.17969,-0.12189 -1.40625,-0.27086 z m 45.66406,-6.23586 c 0.45117,-0.18055 0.99024,-0.15835 1.19792,0.0493 0.20768,0.20768 -0.16146,0.3554 -0.82031,0.32826 -0.7281,-0.03 -0.87619,-0.17809 -0.37761,-0.3776 z m 49.49219,-13.32306 c 0,-0.34375 0.86035,-0.625 1.91189,-0.625 1.11543,0 1.75097,0.26036 1.52561,0.625 -0.21245,0.34375 -1.0728,0.625 -1.91189,0.625 -0.83909,0 -1.52561,-0.28125 -1.52561,-0.625 z m -129.375,-1.59939 c 0,-0.53591 0.28125,-0.80056 0.625,-0.58811 0.34375,0.21245 0.625,0.65093 0.625,0.97439 0,0.32346 -0.28125,0.58811 -0.625,0.58811 -0.34375,0 -0.625,-0.43847 -0.625,-0.97439 z m 8.17434,-6.89019 c 0.03,-0.72809 0.17809,-0.87619 0.3776,-0.37761 0.18055,0.45117 0.15835,0.99023 -0.0493,1.19792 -0.20769,0.20768 -0.3554,-0.16146 -0.32826,-0.82031 z m 96.20066,-2.48481 c 0,-0.53591 0.28125,-0.80056 0.625,-0.58811 0.34375,0.21245 0.625,0.65093 0.625,0.97439 0,0.32346 -0.28125,0.58811 -0.625,0.58811 -0.34375,0 -0.625,-0.43847 -0.625,-0.97439 z m -98.70066,-0.64019 c 0.03,-0.72809 0.17809,-0.87619 0.3776,-0.37761 0.18055,0.45117 0.15835,0.99023 -0.0493,1.19792 -0.20769,0.20768 -0.3554,-0.16146 -0.32826,-0.82031 z m 155.26316,-2.76042 c -0.21245,-0.34375 -0.0884,-0.625 0.27561,-0.625 0.36404,0 0.66189,0.28125 0.66189,0.625 0,0.34375 -0.12403,0.625 -0.27561,0.625 -0.15159,0 -0.44944,-0.28125 -0.66189,-0.625 z m -82.5194,-6.28139 c -0.59388,-0.96092 0.21959,-1.58092 1.02177,-0.77873 0.44887,0.44886 0.45965,0.79845 0.0328,1.06227 -0.34995,0.21628 -0.82449,0.0887 -1.05454,-0.28354 z m 41.23574,-0.0231 c -0.23096,-0.37371 -0.10693,-0.99246 0.27562,-1.375 0.51072,-0.51073 0.69554,-0.33019 0.69554,0.67945 0,1.50907 -0.32466,1.74159 -0.97116,0.69554 z m 51.47897,0.25251 c 0.45117,-0.18054 0.99024,-0.15834 1.19792,0.0493 0.20768,0.20768 -0.16146,0.3554 -0.82031,0.32826 -0.7281,-0.03 -0.87619,-0.17809 -0.37761,-0.3776 z m -40.19531,-2.07306 c 0.21245,-0.34375 0.5103,-0.625 0.66189,-0.625 0.15158,0 0.27561,0.28125 0.27561,0.625 0,0.34375 -0.29785,0.625 -0.66189,0.625 -0.36403,0 -0.48806,-0.28125 -0.27561,-0.625 z m 8.75,0 c 0.21245,-0.34375 0.5103,-0.625 0.66189,-0.625 0.15158,0 0.27561,0.28125 0.27561,0.625 0,0.34375 -0.29785,0.625 -0.66189,0.625 -0.36403,0 -0.48806,-0.28125 -0.27561,-0.625 z m -34.6875,-6.5625 c 0,-0.51562 0.27242,-0.9375 0.60539,-0.9375 0.33295,0 0.44349,0.42188 0.24563,0.9375 -0.19787,0.51563 -0.47029,0.9375 -0.60539,0.9375 -0.13509,0 -0.24563,-0.42187 -0.24563,-0.9375 z m 43.87184,-0.625 c 0.0127,-1.03125 0.15282,-1.37746 0.31128,-0.76936 0.15846,0.60811 0.14804,1.45186 -0.0232,1.875 -0.17121,0.42315 -0.30086,-0.0744 -0.28812,-1.10564 z m -78.99684,0.1875 c 0.58333,-0.58333 0.91667,-0.58333 1.5,0 0.58333,0.58333 0.41667,0.75 -0.75,0.75 -1.16667,0 -1.33333,-0.16667 -0.75,-0.75 z m 39.8125,-6.75 c -0.21245,-0.34375 -0.0884,-0.625 0.27561,-0.625 0.36404,0 0.66189,0.28125 0.66189,0.625 0,0.34375 -0.12403,0.625 -0.27561,0.625 -0.15159,0 -0.44944,-0.28125 -0.66189,-0.625 z m 61.25,-6.25 c -0.21245,-0.34375 -0.0884,-0.625 0.27561,-0.625 0.36404,0 0.66189,0.28125 0.66189,0.625 0,0.34375 -0.12403,0.625 -0.27561,0.625 -0.15159,0 -0.44944,-0.28125 -0.66189,-0.625 z m 1.875,-4.375 c -0.21245,-0.34375 0.0522,-0.625 0.58811,-0.625 0.53591,0 0.97439,0.28125 0.97439,0.625 0,0.34375 -0.26465,0.625 -0.58811,0.625 -0.32347,0 -0.76194,-0.28125 -0.97439,-0.625 z m -8.55469,-1.05194 c 0.45117,-0.18055 0.99024,-0.15835 1.19792,0.0493 0.20768,0.20769 -0.16146,0.3554 -0.82031,0.32826 -0.7281,-0.03 -0.87619,-0.17809 -0.37761,-0.3776 z m -75.82031,-1.44806 c -0.21245,-0.34375 -0.0884,-0.625 0.27561,-0.625 0.36404,0 0.66189,0.28125 0.66189,0.625 0,0.34375 -0.12403,0.625 -0.27561,0.625 -0.15159,0 -0.44944,-0.28125 -0.66189,-0.625 z m 74.6875,-2.5 c 0,-0.34375 0.5791,-0.625 1.28689,-0.625 0.70778,0 1.11306,0.28125 0.90061,0.625 -0.21245,0.34375 -0.79155,0.625 -1.28689,0.625 -0.49534,0 -0.90061,-0.28125 -0.90061,-0.625 z m -6.5625,-5 c -0.21245,-0.34375 0.19283,-0.625 0.90061,-0.625 0.70779,0 1.28689,0.28125 1.28689,0.625 0,0.34375 -0.40528,0.625 -0.90061,0.625 -0.49534,0 -1.07444,-0.28125 -1.28689,-0.625 z"
       id="path3486"
       inkscape:connector-curvature="0"
       inkscape:transform-center-x="251.42857"
       inkscape:transform-center-y="5.7142857" />
  </g>
</svg>
